<svg width="14" height="12" viewBox="0 0 14 12" fill="none" xmlns="http://www.w3.org/2000/svg">
<path d="M11.2509 6C11.2555 5.41071 11.1069 4.83033 10.8196 4.31578C10.5324 3.80124 10.1163 3.37021 9.61215 3.06498C9.55753 3.02788 9.49597 3.00223 9.43118 2.98956C9.36638 2.97689 9.29969 2.97747 9.23513 2.99126C9.17056 3.00505 9.10946 3.03177 9.05549 3.06981C9.00153 3.10785 8.95582 3.15641 8.92113 3.21258C8.88644 3.26876 8.86347 3.33137 8.85362 3.39665C8.84377 3.46193 8.84724 3.52854 8.86381 3.59244C8.88038 3.65635 8.90973 3.71624 8.95006 3.76851C8.9904 3.82078 9.0409 3.86434 9.09852 3.89657C9.45793 4.11458 9.75509 4.42154 9.96132 4.78784C10.1675 5.15414 10.2759 5.56741 10.2759 5.98777C10.2759 6.40813 10.1675 6.8214 9.96132 7.1877C9.75509 7.554 9.45793 7.86096 9.09852 8.07898C9.04231 8.1127 8.9933 8.15717 8.95427 8.20984C8.91525 8.26251 8.88698 8.32234 8.87108 8.38594C8.85518 8.44953 8.85197 8.51563 8.86161 8.58047C8.87126 8.64531 8.89359 8.70761 8.92731 8.76382C8.96104 8.82002 9.0055 8.86904 9.05817 8.90807C9.11084 8.94709 9.17068 8.97536 9.23427 8.99126C9.29787 9.00715 9.36397 9.01037 9.4288 9.00072C9.49364 8.99108 9.55594 8.96875 9.61215 8.93503C10.1163 8.62979 10.5324 8.19876 10.8196 7.68422C11.1069 7.16968 11.2555 6.58929 11.2509 6Z" fill="white"/>
<path d="M11.0553 1.69549C11.0039 1.65695 10.9454 1.6289 10.8832 1.61296C10.8209 1.59702 10.7562 1.59349 10.6926 1.60257C10.629 1.61166 10.5678 1.63318 10.5125 1.66591C10.4572 1.69864 10.409 1.74193 10.3704 1.79332C10.3319 1.84472 10.3038 1.9032 10.2879 1.96542C10.2719 2.02765 10.2684 2.09241 10.2775 2.15601C10.2866 2.2196 10.3081 2.28078 10.3408 2.33606C10.3736 2.39133 10.4169 2.43962 10.4683 2.47816C11.015 2.88825 11.4588 3.42 11.7645 4.03132C12.0701 4.64264 12.2293 5.31672 12.2293 6.00019C12.2293 6.68367 12.0701 7.35775 11.7645 7.96907C11.4588 8.58039 11.015 9.11214 10.4683 9.52223C10.4169 9.56077 10.3736 9.60906 10.3408 9.66433C10.3081 9.71961 10.2866 9.78079 10.2775 9.84438C10.2684 9.90798 10.2719 9.97274 10.2879 10.035C10.3038 10.0972 10.3319 10.1557 10.3704 10.2071C10.409 10.2585 10.4572 10.3018 10.5125 10.3345C10.5678 10.3672 10.629 10.3887 10.6926 10.3978C10.7562 10.4069 10.8209 10.4034 10.8832 10.3874C10.9454 10.3715 11.0039 10.3434 11.0553 10.3049C11.7235 9.80369 12.266 9.15376 12.6395 8.4066C13.0131 7.65943 13.2076 6.83555 13.2076 6.00019C13.2076 5.16484 13.0131 4.34096 12.6395 3.59379C12.266 2.84663 11.7235 2.1967 11.0553 1.69549Z" fill="white"/>
<path d="M0.489171 4.04332C0.359435 4.04332 0.235012 4.09485 0.143275 4.18659C0.0515375 4.27833 0 4.40275 0 4.53249V7.46751C0 7.59725 0.0515375 7.72167 0.143275 7.81341C0.235012 7.90515 0.359435 7.95668 0.489171 7.95668H3.4242L7.3925 11.925C7.55274 12.0852 7.82674 11.9717 7.82674 11.7451V0.254878C7.82674 0.02826 7.55274 -0.0852305 7.3925 0.075013L3.4242 4.04332H0.489171Z" fill="white"/>
</svg>
