<svg width="76" height="24" viewBox="0 0 76 24" fill="none" xmlns="http://www.w3.org/2000/svg">
<path d="M74.875 11.3438L64 5V19L74.875 12.6562V18.475C74.875 18.7649 75.1268 19 75.4375 19C75.7482 19 76 18.7649 76 18.475V5.525C76 5.23505 75.7482 5 75.4375 5C75.1268 5 74.875 5.23505 74.875 5.525V11.3438Z" fill="white"/>
<circle cx="38" cy="12" r="12" fill="#191623"/>
<rect x="35" y="7" width="2" height="10" rx="1" fill="white"/>
<rect x="39" y="7" width="2" height="10" rx="1" fill="white"/>
<path d="M1.125 11.3438L12 5V19L1.125 12.6562V18.475C1.125 18.7649 0.87316 19 0.5625 19C0.25184 19 0 18.7649 0 18.475V5.525C0 5.23505 0.25184 5 0.5625 5C0.87316 5 1.125 5.23505 1.125 5.525V11.3438Z" fill="white"/>
</svg>
